<svg width="100%" viewBox="0 0 680 640" role="img" xmlns="http://www.w3.org/2000/svg">
<title>The qualifier drift diagnostic: tracking a warning word across four documentation surfaces</title>
<desc>A source sentence from the docs page reads "Deleting this configuration may impact downstream models that depend on it." The phrase "may impact" is highlighted as the qualifier. Four surface cards show how that sentence appears in the tooltip, onboarding, chatbot, and docs page. Three surfaces lost the qualifier. Only the docs page preserved it.</desc>
<style>
.t { font-family: system-ui, -apple-system, sans-serif; font-size: 14px; fill: #2C2C2A; }
.ts { font-family: system-ui, -apple-system, sans-serif; font-size: 12px; fill: #5F5E5A; }
.th { font-family: system-ui, -apple-system, sans-serif; font-size: 14px; font-weight: 500; fill: #2C2C2A; }
.c-gray rect { fill: #F1EFE8; stroke: #888780; }
.c-amber rect { fill: #FAEEDA; stroke: #BA7517; }
.c-red rect { fill: #FCEBEB; stroke: #A32D2D; }
.c-teal rect { fill: #E1F5EE; stroke: #0F6E56; }
.c-amber .th, .c-amber .t, .c-amber .ts { fill: #633806; }
.c-red .th, .c-red .t, .c-red .ts { fill: #791F1F; }
.c-teal .th, .c-teal .t, .c-teal .ts { fill: #085041; }
@media (prefers-color-scheme: dark) {
.t { fill: #D3D1C7; }
.ts { fill: #B4B2A9; }
.th { fill: #D3D1C7; }
.c-gray rect { fill: #2C2C2A; stroke: #B4B2A9; }
.c-amber rect { fill: #633806; stroke: #FAC775; }
.c-red rect { fill: #791F1F; stroke: #F7C1C1; }
.c-teal rect { fill: #085041; stroke: #9FE1CB; }
.c-amber .th, .c-amber .t, .c-amber .ts { fill: #FAEEDA; }
.c-red .th, .c-red .t, .c-red .ts { fill: #FCEBEB; }
.c-teal .th, .c-teal .t, .c-teal .ts { fill: #E1F5EE; }
}
</style>
<defs>
<marker id="arrow" viewBox="0 0 10 10" refX="8" refY="5" markerWidth="6" markerHeight="6" orient="auto-start-reverse"><path d="M2 1L8 5L2 9" fill="none" stroke="#888780" stroke-width="1.5" stroke-linecap="round" stroke-linejoin="round"/></marker>
</defs>

<text class="ts" x="40" y="34">The qualifier</text>

<g class="c-amber"><rect x="40" y="48" width="600" height="72" rx="8" stroke-width="0.5"/></g>
<text class="t" x="60" y="78">Deleting this configuration</text>
<rect x="245" y="62" width="100" height="22" rx="4" fill="#EF9F27" opacity="0.5"/>
<text class="th" x="295" y="78" text-anchor="middle">may impact</text>
<text class="t" x="350" y="78">downstream models</text>
<text class="ts" x="60" y="102">The warning lives in two words. Watch whether they survive each trip.</text>

<line x1="140" y1="130" x2="140" y2="170" stroke="#888780" stroke-width="1.5" marker-end="url(#arrow)"/>
<line x1="340" y1="130" x2="340" y2="170" stroke="#888780" stroke-width="1.5" marker-end="url(#arrow)"/>
<line x1="540" y1="130" x2="540" y2="170" stroke="#888780" stroke-width="1.5" marker-end="url(#arrow)"/>
<line x1="240" y1="380" x2="240" y2="420" stroke="#888780" stroke-width="1.5" marker-end="url(#arrow)"/>
<line x1="440" y1="380" x2="440" y2="420" stroke="#888780" stroke-width="1.5" marker-end="url(#arrow)"/>

<g class="c-red"><rect x="40" y="180" width="200" height="110" rx="8" stroke-width="0.5"/></g>
<text class="ts" x="60" y="204">Surface 1 — Tooltip</text>
<text class="t" x="60" y="230">"Deleting this config may</text>
<text class="t" x="60" y="248">affect other models."</text>
<circle cx="220" cy="270" r="8" fill="#A32D2D"/>
<path d="M216 266 L224 274 M224 266 L216 274" stroke="#FCEBEB" stroke-width="1.5" stroke-linecap="round" fill="none"/>
<text class="ts" x="60" y="282">Qualifier weakened</text>

<g class="c-red"><rect x="240" y="180" width="200" height="110" rx="8" stroke-width="0.5"/></g>
<text class="ts" x="260" y="204">Surface 2 — Onboarding</text>
<text class="t" x="260" y="230">"You can delete configs</text>
<text class="t" x="260" y="248">you no longer need."</text>
<circle cx="420" cy="270" r="8" fill="#A32D2D"/>
<path d="M416 266 L424 274 M424 266 L416 274" stroke="#FCEBEB" stroke-width="1.5" stroke-linecap="round" fill="none"/>
<text class="ts" x="260" y="282">Qualifier dropped</text>

<g class="c-red"><rect x="440" y="180" width="200" height="110" rx="8" stroke-width="0.5"/></g>
<text class="ts" x="460" y="204">Surface 3 — Chatbot</text>
<text class="t" x="460" y="230">"Yes, configurations</text>
<text class="t" x="460" y="248">can be deleted."</text>
<circle cx="620" cy="270" r="8" fill="#A32D2D"/>
<path d="M616 266 L624 274 M624 266 L616 274" stroke="#FCEBEB" stroke-width="1.5" stroke-linecap="round" fill="none"/>
<text class="ts" x="460" y="282">Qualifier stripped</text>

<g class="c-teal"><rect x="140" y="430" width="400" height="110" rx="8" stroke-width="0.5"/></g>
<text class="ts" x="160" y="454">Surface 4 — Docs page</text>
<text class="t" x="160" y="480">"Deleting this configuration may impact</text>
<text class="t" x="160" y="498">downstream models that depend on it."</text>
<circle cx="520" cy="520" r="8" fill="#0F6E56"/>
<path d="M516 520 L520 524 L524 516" stroke="#E1F5EE" stroke-width="1.5" stroke-linecap="round" stroke-linejoin="round" fill="none"/>
<text class="ts" x="160" y="532">Qualifier preserved</text>

<g class="c-gray"><rect x="40" y="570" width="600" height="50" rx="8" stroke-width="0.5"/></g>
<text class="th" x="60" y="595">Three of four surfaces lost the warning.</text>
<text class="ts" x="60" y="611">The user stitches these together. The qualifier that mattered is now invisible.</text>
</svg>
